<svg width="24" height="24" viewBox="0 0 24 24" fill="none" xmlns="http://www.w3.org/2000/svg">
<path d="M4 3.25C4 2.83579 4.33579 2.5 4.75 2.5H16L20 6.5V20.75C20 21.1642 19.6642 21.5 19.25 21.5H4.75C4.33579 21.5 4 21.1642 4 20.75V3.25Z" fill="#0AB062"/>
<path fill-rule="evenodd" clip-rule="evenodd" d="M4.75 21.25H19.25C19.5261 21.25 19.75 21.0261 19.75 20.75V6.60355L15.8964 2.75H4.75C4.47386 2.75 4.25 2.97386 4.25 3.25V20.75C4.25 21.0261 4.47386 21.25 4.75 21.25ZM16 2.5H4.75C4.33579 2.5 4 2.83579 4 3.25V20.75C4 21.1642 4.33579 21.5 4.75 21.5H19.25C19.6642 21.5 20 21.1642 20 20.75V6.5L16 2.5Z" fill="url(#paint0_linear_6434_150106)"/>
<path d="M12 2.75H16L19.75 6.5V20.75C19.75 21.0261 19.5261 21.25 19.25 21.25H12V2.75Z" fill="#04AC5D"/>
<path d="M16 2.5L20 6.5H16.75C16.3358 6.5 16 6.16421 16 5.75V2.5Z" fill="#00854E"/>
<path d="M8.24666 15.5L6.97016 13.4012L8.16041 11.406H7.25766L6.53891 12.7285L5.82591 11.406H4.91741L6.10766 13.4012L4.83691 15.5H5.75116L6.53891 14.074L7.33241 15.5H8.24666Z" fill="white"/>
<path d="M11.6565 15.5V14.787H9.79926V11.406H9.00001V15.5H11.6565Z" fill="white"/>
<path d="M15.2024 14.2925C15.2024 13.9302 15.1046 13.6312 14.8861 13.4242C14.7136 13.2632 14.4779 13.1597 14.1041 13.108L13.6211 13.039C13.4544 13.016 13.3221 12.9527 13.2416 12.878C13.1554 12.7975 13.1209 12.6882 13.1209 12.5847C13.1209 12.303 13.3279 12.0672 13.7534 12.0672C14.0236 12.0672 14.3341 12.1017 14.5929 12.349L15.0989 11.8487C14.7481 11.5095 14.3399 11.3715 13.7764 11.3715C12.8909 11.3715 12.3504 11.8832 12.3504 12.6135C12.3504 12.9585 12.4481 13.223 12.6436 13.4185C12.8276 13.5967 13.0864 13.706 13.4371 13.7577L13.9316 13.8267C14.1214 13.8555 14.2134 13.8957 14.2939 13.9705C14.3801 14.051 14.4204 14.1717 14.4204 14.3155C14.4204 14.6432 14.1674 14.8215 13.6959 14.8215C13.3164 14.8215 12.9656 14.7352 12.7069 14.4765L12.1894 14.994C12.5919 15.4022 13.0634 15.5345 13.6844 15.5345C14.5411 15.5345 15.2024 15.086 15.2024 14.2925Z" fill="white"/>
<path d="M19.1659 15.5L17.8894 13.4012L19.0796 11.406H18.1769L17.4581 12.7285L16.7451 11.406H15.8366L17.0269 13.4012L15.7561 15.5H16.6704L17.4581 14.074L18.2516 15.5H19.1659Z" fill="white"/>
<path fill-rule="evenodd" clip-rule="evenodd" d="M8.62258 17.2092C8.50052 17.236 8.3746 17.25 8.24666 17.25H7.33241C7.05276 17.25 6.78277 17.1832 6.54179 17.0612C6.30083 17.1832 6.03085 17.25 5.75116 17.25H4.83691C4.20518 17.25 3.62248 16.9095 3.31233 16.3591C3.00219 15.8088 3.01273 15.134 3.33993 14.5936L4.06594 13.3945L3.41451 12.3025C3.09192 11.7617 3.08472 11.0894 3.39566 10.5418C3.7066 9.99425 4.28774 9.65596 4.91741 9.65596H5.82591C6.07709 9.65596 6.32036 9.70977 6.54179 9.80907C6.76323 9.70976 7.00651 9.65596 7.25766 9.65596H8.16041C8.30346 9.65596 8.44401 9.67342 8.57945 9.70682C8.71417 9.67359 8.85503 9.65596 9.00001 9.65596H9.79926C10.4812 9.65596 11.0721 10.046 11.3608 10.6152C11.4253 10.5451 11.4938 10.4774 11.5666 10.4125C12.1991 9.84843 13.0018 9.62146 13.7764 9.62146C14.2211 9.62146 14.6611 9.68038 15.0827 9.82665C15.3143 9.71608 15.5712 9.65596 15.8366 9.65596H16.7451C16.9963 9.65596 17.2396 9.70977 17.461 9.80907C17.6824 9.70976 17.9257 9.65596 18.1769 9.65596H19.0796C19.7093 9.65596 20.2904 9.99425 20.6014 10.5418C20.9123 11.0894 20.9051 11.7617 20.5825 12.3025L19.9323 13.3925L20.661 14.5906C20.9896 15.1308 21.0012 15.8064 20.6913 16.3576C20.3814 16.9088 19.7982 17.25 19.1659 17.25H18.2516C17.9719 17.25 17.702 17.1832 17.461 17.0612C17.22 17.1832 16.95 17.25 16.6704 17.25H15.7561C15.4801 17.25 15.2134 17.185 14.9748 17.0659C14.5471 17.2208 14.1028 17.2845 13.6844 17.2845C13.2564 17.2845 12.8093 17.2378 12.3682 17.0992C12.1508 17.1961 11.9099 17.25 11.6565 17.25H9.00001C8.87043 17.25 8.74414 17.2359 8.62258 17.2092ZM8.16041 11.406H7.25766L6.53891 12.7285L5.82591 11.406H4.91741L6.10766 13.4012L4.83691 15.5H5.75116L6.53891 14.074L7.33241 15.5H8.24666L6.97016 13.4012L8.16041 11.406ZM9.00001 15.5H11.6565V14.787H9.79926V11.406H9.00001V15.5ZM12.5185 13.2636C12.5544 13.3194 12.5961 13.371 12.6436 13.4185C12.66 13.4343 12.6769 13.4496 12.6944 13.4643C12.6949 13.4647 12.6954 13.4652 12.696 13.4656C12.756 13.5159 12.823 13.5599 12.8975 13.598C12.9216 13.6103 12.9466 13.622 12.9723 13.6331C13.1026 13.6894 13.2535 13.7299 13.4271 13.7562C13.4305 13.7567 13.4338 13.7572 13.4371 13.7577L13.9316 13.8267C13.9559 13.8304 13.9786 13.8342 13.9998 13.8383C14.0008 13.8385 14.0019 13.8388 14.0029 13.839C14.1459 13.8669 14.2242 13.9057 14.2939 13.9705C14.3072 13.9829 14.3194 13.9963 14.3306 14.0106C14.3319 14.0122 14.3331 14.0138 14.3343 14.0154C14.3505 14.0369 14.3643 14.0604 14.3758 14.0855C14.4032 14.1455 14.4177 14.2154 14.42 14.2925C14.4203 14.3001 14.4204 14.3077 14.4204 14.3155C14.4204 14.3195 14.4203 14.3235 14.4203 14.3274C14.418 14.4477 14.3809 14.5473 14.3108 14.6249C14.2777 14.6614 14.2373 14.6931 14.1897 14.7197C14.1049 14.767 13.9973 14.7983 13.8681 14.8125C13.8656 14.8128 13.8631 14.8131 13.8605 14.8134C13.8554 14.8139 13.8503 14.8144 13.8452 14.8149C13.8282 14.8165 13.8109 14.8177 13.7932 14.8188C13.7892 14.819 13.7852 14.8192 13.7812 14.8194C13.7622 14.8203 13.7427 14.821 13.7229 14.8213C13.714 14.8214 13.705 14.8215 13.6959 14.8215C13.6921 14.8215 13.6882 14.8215 13.6844 14.8214C13.6257 14.8212 13.5677 14.8188 13.5106 14.814C13.5093 14.8139 13.5081 14.8138 13.5069 14.8137C13.4731 14.8108 13.4396 14.8071 13.4065 14.8024C13.3757 14.7981 13.3453 14.7929 13.3152 14.787C13.3081 14.7856 13.3011 14.7841 13.2941 14.7826C13.2915 14.7821 13.2888 14.7815 13.2862 14.7809C13.2006 14.7622 13.1181 14.7363 13.0398 14.7021C12.9193 14.6495 12.8084 14.577 12.7106 14.4801C12.7095 14.4791 12.7085 14.478 12.7074 14.477C12.7072 14.4768 12.7071 14.4766 12.7069 14.4765L12.1894 14.9939C12.1961 15.0007 12.2028 15.0075 12.2096 15.0141C12.4354 15.2368 12.6831 15.3742 12.9666 15.4515C13.0401 15.4716 13.116 15.4876 13.1946 15.5C13.2631 15.5108 13.3336 15.5188 13.4063 15.5244C13.425 15.5259 13.4438 15.5271 13.4628 15.5282C13.501 15.5305 13.5398 15.5321 13.5791 15.5331C13.61 15.5339 13.6413 15.5344 13.6729 15.5344C13.6767 15.5345 13.6805 15.5345 13.6844 15.5345C13.6874 15.5345 13.6904 15.5345 13.6933 15.5344C13.6942 15.5344 13.695 15.5344 13.6959 15.5344C13.7186 15.5343 13.7412 15.5339 13.7636 15.5332C13.8466 15.5304 13.9276 15.5234 14.0061 15.5122C14.4098 15.4543 14.7481 15.2853 14.9608 15.0184C15.0442 14.9137 15.1083 14.7939 15.1495 14.6598C15.1548 14.6425 15.1597 14.625 15.1643 14.6072C15.1875 14.5161 15.2005 14.4187 15.2022 14.3155C15.2023 14.3078 15.2024 14.3002 15.2024 14.2925C15.2024 14.1891 15.1944 14.091 15.178 13.9986C15.1414 13.793 15.0627 13.6161 14.9361 13.4755C14.9202 13.4578 14.9036 13.4407 14.8861 13.4242C14.8715 13.4105 14.8564 13.3973 14.8408 13.3845C14.8403 13.384 14.8398 13.3836 14.8392 13.3832C14.7871 13.3405 14.7294 13.3023 14.6645 13.2686C14.5199 13.1936 14.3394 13.1405 14.1041 13.108L13.6211 13.039C13.595 13.0353 13.5696 13.0307 13.5452 13.0253C13.5433 13.0248 13.5414 13.0244 13.5395 13.024C13.4111 12.9942 13.3085 12.9401 13.2416 12.878C13.2316 12.8686 13.2222 12.8587 13.2135 12.8486C13.2107 12.8453 13.2079 12.842 13.2053 12.8387C13.1926 12.8228 13.1816 12.8062 13.172 12.7891C13.1412 12.734 13.1255 12.6733 13.1218 12.6135C13.1212 12.6038 13.1209 12.5943 13.1209 12.5847C13.1209 12.3214 13.3017 12.0983 13.6726 12.0702C13.6771 12.0698 13.6817 12.0695 13.6863 12.0692C13.7044 12.0681 13.723 12.0675 13.7421 12.0673C13.7458 12.0672 13.7496 12.0672 13.7534 12.0672C13.754 12.0672 13.7546 12.0672 13.7552 12.0672C13.7568 12.0672 13.7584 12.0672 13.76 12.0672C13.7654 12.0672 13.7709 12.0673 13.7764 12.0673C13.8437 12.0678 13.9133 12.0707 13.9837 12.0788C13.9849 12.0789 13.986 12.079 13.9872 12.0792C14.048 12.0862 14.1095 12.0971 14.1707 12.1135C14.1773 12.1153 14.1838 12.1171 14.1904 12.119C14.2066 12.1237 14.2228 12.1288 14.239 12.1343C14.2403 12.1347 14.2417 12.1352 14.243 12.1357C14.2442 12.1361 14.2454 12.1365 14.2465 12.1369C14.3148 12.1608 14.3822 12.1925 14.4477 12.2345C14.4974 12.2664 14.546 12.3042 14.5929 12.349L15.0989 11.8487C15.0983 11.8482 15.0977 11.8476 15.0972 11.8471C15.0929 11.8429 15.0886 11.8388 15.0843 11.8347C14.8673 11.6293 14.628 11.4998 14.3436 11.4315C14.3413 11.4309 14.3389 11.4303 14.3365 11.4298C14.2742 11.4151 14.2098 11.4033 14.1429 11.3943C14.1244 11.3918 14.1056 11.3895 14.0867 11.3874C14.0138 11.3794 13.9381 11.3745 13.8592 11.3725C13.8565 11.3724 13.8538 11.3724 13.851 11.3723C13.8264 11.3717 13.8016 11.3715 13.7764 11.3715C13.7687 11.3715 13.761 11.3715 13.7534 11.3716C13.7119 11.372 13.6711 11.3735 13.6312 11.3762C12.8433 11.4286 12.3639 11.9103 12.3507 12.5847C12.3505 12.5943 12.3504 12.6038 12.3504 12.6135C12.3504 12.6646 12.3525 12.714 12.3568 12.7616C12.3745 12.9573 12.4284 13.1238 12.5185 13.2636ZM15.7561 15.5H16.6704L17.4581 14.074L18.2516 15.5H19.1659L17.8894 13.4012L19.0796 11.406H18.1769L17.4581 12.7285L16.7451 11.406H15.8366L17.0269 13.4012L15.7561 15.5Z" fill="#009D53"/>
<g filter="url(#filter0_d_6434_150106)">
<path d="M8.24666 15.5L6.97016 13.4012L8.16041 11.406H7.25766L6.53891 12.7285L5.82591 11.406H4.91741L6.10766 13.4012L4.83691 15.5H5.75116L6.53891 14.074L7.33241 15.5H8.24666Z" fill="url(#paint1_linear_6434_150106)"/>
<path d="M11.6565 15.5V14.787H9.79926V11.406H9.00001V15.5H11.6565Z" fill="url(#paint2_linear_6434_150106)"/>
<path d="M15.2024 14.2925C15.2024 13.9302 15.1046 13.6312 14.8861 13.4242C14.7136 13.2632 14.4779 13.1597 14.1041 13.108L13.6211 13.039C13.4544 13.016 13.3221 12.9527 13.2416 12.878C13.1554 12.7975 13.1209 12.6882 13.1209 12.5847C13.1209 12.303 13.3279 12.0672 13.7534 12.0672C14.0236 12.0672 14.3341 12.1017 14.5929 12.349L15.0989 11.8487C14.7481 11.5095 14.3399 11.3715 13.7764 11.3715C12.8909 11.3715 12.3504 11.8832 12.3504 12.6135C12.3504 12.9585 12.4481 13.223 12.6436 13.4185C12.8276 13.5967 13.0864 13.706 13.4371 13.7577L13.9316 13.8267C14.1214 13.8555 14.2134 13.8957 14.2939 13.9705C14.3801 14.051 14.4204 14.1717 14.4204 14.3155C14.4204 14.6432 14.1674 14.8215 13.6959 14.8215C13.3164 14.8215 12.9656 14.7352 12.7069 14.4765L12.1894 14.994C12.5919 15.4022 13.0634 15.5345 13.6844 15.5345C14.5411 15.5345 15.2024 15.086 15.2024 14.2925Z" fill="url(#paint3_linear_6434_150106)"/>
<path d="M19.1659 15.5L17.8894 13.4012L19.0796 11.406H18.1769L17.4581 12.7285L16.7451 11.406H15.8366L17.0269 13.4012L15.7561 15.5H16.6704L17.4581 14.074L18.2516 15.5H19.1659Z" fill="url(#paint4_linear_6434_150106)"/>
</g>
<defs>
<filter id="filter0_d_6434_150106" x="3.83691" y="10.8715" width="16.3289" height="6.16302" filterUnits="userSpaceOnUse" color-interpolation-filters="sRGB">
<feFlood flood-opacity="0" result="BackgroundImageFix"/>
<feColorMatrix in="SourceAlpha" type="matrix" values="0 0 0 0 0 0 0 0 0 0 0 0 0 0 0 0 0 0 127 0" result="hardAlpha"/>
<feOffset dy="0.5"/>
<feGaussianBlur stdDeviation="0.5"/>
<feComposite in2="hardAlpha" operator="out"/>
<feColorMatrix type="matrix" values="0 0 0 0 0 0 0 0 0 0.491667 0 0 0 0 0.283527 0 0 0 1 0"/>
<feBlend mode="normal" in2="BackgroundImageFix" result="effect1_dropShadow_6434_150106"/>
<feBlend mode="normal" in="SourceGraphic" in2="effect1_dropShadow_6434_150106" result="shape"/>
</filter>
<linearGradient id="paint0_linear_6434_150106" x1="12" y1="2.5" x2="12" y2="21.5" gradientUnits="userSpaceOnUse">
<stop stop-color="#1ABF71"/>
<stop offset="1" stop-color="#00A256"/>
</linearGradient>
<linearGradient id="paint1_linear_6434_150106" x1="12.0001" y1="12.2438" x2="12.0001" y2="15.5365" gradientUnits="userSpaceOnUse">
<stop stop-color="white"/>
<stop offset="1" stop-color="#E2FFEE"/>
</linearGradient>
<linearGradient id="paint2_linear_6434_150106" x1="12.0001" y1="12.2438" x2="12.0001" y2="15.5365" gradientUnits="userSpaceOnUse">
<stop stop-color="white"/>
<stop offset="1" stop-color="#E2FFEE"/>
</linearGradient>
<linearGradient id="paint3_linear_6434_150106" x1="12.0001" y1="12.2438" x2="12.0001" y2="15.5365" gradientUnits="userSpaceOnUse">
<stop stop-color="white"/>
<stop offset="1" stop-color="#E2FFEE"/>
</linearGradient>
<linearGradient id="paint4_linear_6434_150106" x1="12.0001" y1="12.2438" x2="12.0001" y2="15.5365" gradientUnits="userSpaceOnUse">
<stop stop-color="white"/>
<stop offset="1" stop-color="#E2FFEE"/>
</linearGradient>
</defs>
</svg>
